<mxfile host="app.diagrams.net" modified="2022-12-09T08:10:19.184Z" agent="5.0 (Macintosh; Intel Mac OS X 10_15_7) AppleWebKit/537.36 (KHTML, like Gecko) Chrome/108.0.0.0 Safari/537.36" version="20.6.2" etag="kiN6dh5j3UQ-FReLcDg8" type="github">
  <diagram id="IsIxXyHmBGshWpnnfHQy" name="第 1 页">
    <mxGraphModel dx="1426" dy="426" grid="1" gridSize="10" guides="1" tooltips="1" connect="1" arrows="1" fold="1" page="1" pageScale="1" pageWidth="827" pageHeight="1169" math="0" shadow="0">
      <root>
        <mxCell id="0" />
        <mxCell id="1" parent="0" />
        <mxCell id="pWcsAi9DDk6Lg-up-9Yh-1" value="开始" style="rounded=1;whiteSpace=wrap;html=1;" vertex="1" parent="1">
          <mxGeometry x="190" y="30" width="120" height="30" as="geometry" />
        </mxCell>
        <mxCell id="pWcsAi9DDk6Lg-up-9Yh-2" value="" style="whiteSpace=wrap;html=1;rounded=1;" vertex="1" parent="1">
          <mxGeometry x="190" y="160" width="120" height="30" as="geometry" />
        </mxCell>
      </root>
    </mxGraphModel>
  </diagram>
</mxfile>
